<?xml version="1.0" encoding="utf-8"?>
<!-- Svg Vector Icons : http://www.onlinewebfonts.com/icon -->
<!DOCTYPE svg PUBLIC "-//W3C//DTD SVG 1.1//EN" "http://www.w3.org/Graphics/SVG/1.1/DTD/svg11.dtd">
<svg version="1.1" xmlns="http://www.w3.org/2000/svg" xmlns:xlink="http://www.w3.org/1999/xlink" x="0px" y="0px" viewBox="0 0 1000 1000" enable-background="new 0 0 1000 1000" xml:space="preserve">
<metadata> Svg Vector Icons : http://www.onlinewebfonts.com/icon </metadata>
<g><g transform="translate(0.000000,471.000000) scale(0.100000,-0.100000)"><path d="M2379.1,4196.8C1547.6,4080,812,3526.3,402,2706.3c-251-502-337.2-994.3-289.3-1670.6C174,156.3,361.7-477.8,720-1027.7c390.8-601.6,785.5-971.3,2143.8-2007.8c894.7-684,1410.1-1105.4,1971.4-1617c82.4-74.7,157.1-136,164.8-136c9.6,0,88.1,67.1,176.3,147.5c477.1,440.6,1086.3,938.8,2046.1,1672.5c975.2,747.2,1360.3,1076.7,1666.8,1427.3c643.7,735.7,917.7,1444.5,998.2,2576.8c47.9,676.3-38.3,1168.7-289.3,1670.6c-266.3,532.6-733.8,1011.6-1224.2,1260.6c-501.9,252.9-1084.4,308.4-1672.5,160.9c-457.9-116.9-908.1-383.2-1212.7-722.3c-132.2-145.6-344.9-459.8-419.6-620.7c-30.7-67.1-63.2-120.7-69-120.7c-5.7,0-38.3,53.6-69,120.7c-99.6,210.7-314.2,513.4-496.2,693.5c-352.5,352.5-775.9,578.6-1276,680.1C2942.4,4202.6,2557.3,4221.7,2379.1,4196.8z M3126.3,3403.7c295-57.5,641.8-214.6,940.7-427.2c308.5-220.3,664.8-616.9,846.8-940.7c42.2-74.7,80.5-137.9,86.2-137.9c5.7,0,46,72.8,90.1,159c203.1,394.7,551.8,812.3,846.8,1009.7c277.8,185.8,584.3,302.7,915.8,346.8c206.9,26.8,588.2,11.5,741.4-28.7c791.2-218.4,1379.4-965.6,1507.8-1921.6c26.8-208.8,11.5-775.9-30.6-1057.6c-126.4-862.1-500-1513.5-1241.5-2163c-285.5-251-490.5-413.8-1162.9-923.4c-649.5-492.4-1030.7-795.1-1402.4-1116.9L5000-4024.1l-266.3,229.9c-369.8,316.1-818.1,672.5-1438.8,1141.8c-770.2,584.3-1071,831.5-1362.2,1120.8C1333.1-933.8,1053.3-393.6,925,413c-47.9,306.5-47.9,1011.6,0,1235.7c174.4,808.5,661,1433.1,1306.6,1678.3C2501.7,3428.6,2842.8,3457.3,3126.3,3403.7z"/></g></g>
</svg>